<svg xmlns="http://www.w3.org/2000/svg" width="300" height="102.557" xmlns:v="https://vecta.io/nano"><path d="M5 5q15 9 6 15c-9 8-6 11 1 18q18-3 23 7 5-10 23-7c7-5 9-10 1-18q-6-6 7-15c-6 3-15 3-18 9q-13-8-25 0c-2-6-12-6-18-9ZM8 44c17 13-10 19 0 41s32 19 45 11c15-9-7-33 10-44-25-1-10 24-22 33s-15 7-18 4c-7-10 7-12 7-27-1-12-3-19-22-18ZM13 9l3 6q1-2 3-2c0 0 0 0 0 0l-6-4c0 0 0 0 0 0Z" fill="#65B2F7" /><path d="M112 34c-33 4-33 39 0 45l8 0c-30-6-41-36 0-45l-8 0ZM127 34c-13 19-13 29 0 45h5c-7-12-17-21 0-45ZM134 34c-4 6-12 19-5 20s9 1 13-1c5-5 6-11 3-18s-7.3333-.6667-11-1ZM126 57c-1 8 4 14 8 21 2 2 4 2 4 0-2-5-7-12-8-18s10.3333 12 15 18c1 2 3 2 3 0-2-7-6-14-13-20s-6-.6667-9-1ZM137 39c-3 2-5 6-4 9 2 3 5 2 7 0 2-3 5-7 1-9s-2.6667 0-4 0ZM151 34c-4 19 3 20 10 20 8 0 14-1 10-20-1 0-2-2-4 0-.6667 4.6667 4 17-6 16-7-1-7-9-6-16-1 0-2-2-4 0ZM152 55c6 3 12 3 18 0 2 2 2 4-4 7-3 1-4 1-3 3 1 5 2 8 0 13-1 2-3 2-4 0-2-5-2-8-1-13 0-2-1-2-3-3-6-3-6-5-3-7ZM183 34c-10 17-10 26 0 45h6c-9-17-13-25 0-45h-6ZM191 34c-3 7-12 19-4 22s9 1 10 0c6-7 8-14 5-20s-7.3333-1.3333-11-2ZM194 39c-3 3-5 7-5 11 1 4 5 3 7 0 3-4 5-9 2-11s-2.3333 0-4 0ZM208 34c13 5 16 5 27 0 4 2 4 6-7 10-4 2-5 4-4 6 3 9 3 20-1 27-2 3-4 3-6 0-4-8-3-18 0-27 1-2 0-4-4-6-9-4-9-8-5-10ZM242 34c-5 17-3 20 10 20 12 0 14-3 9-20-2-1-2-1-4 0 3 10 4 15-5 15-9 0-8-5-6-15-2-1-2-1-4 0ZM241 57c8 3 13 3 21 0 5 2 0 6-3 7-2 1-5 1-5 3 1 5 1 7 0 11-1 2-4 2-5 0-1-4-1-6 0-11 0-2-3-2-5-3-4-1-8-5-3-7ZM268 38c0-5 3-5 5 0s7 17 4 18-9-9-9-18ZM286 39c2-8 7-5 6 2s-12 35-21 38 10-21 15-40ZM284 70c-1-4 1-5 3-3s5 6 5 10-6-1-8-7Z" fill="#fff" /></svg>